<?xml version="1.0" encoding="UTF-8"?>
<!DOCTYPE svg PUBLIC "-//W3C//DTD SVG 1.1//EN" "http://www.w3.org/Graphics/SVG/1.1/DTD/svg11.dtd">
<svg xmlns="http://www.w3.org/2000/svg" version="1.1" width="431px" height="431px" style="shape-rendering:geometricPrecision; text-rendering:geometricPrecision; image-rendering:optimizeQuality; fill-rule:evenodd; clip-rule:evenodd" xmlns:xlink="http://www.w3.org/1999/xlink">
<g><path style="opacity:1" fill="#24509b" d="M 199.5,-0.5 C 209.833,-0.5 220.167,-0.5 230.5,-0.5C 277.848,3.66755 319.681,21.0009 356,51.5C 356.667,52.1667 356.667,52.8333 356,53.5C 295.855,7.20899 230.355,-1.95768 159.5,26C 87.3544,61.0615 49.3544,118.895 45.5,199.5C 45.9826,220.895 49.6492,241.729 56.5,262C 51.111,276.278 44.2777,289.778 36,302.5C 32.7883,306.886 28.6216,309.886 23.5,311.5C 18.9628,305.092 15.4628,298.092 13,290.5C 5.98535,270.579 1.48535,250.246 -0.5,229.5C -0.5,219.833 -0.5,210.167 -0.5,200.5C 8.31698,118.218 49.317,58.0514 122.5,20C 147.169,8.91802 172.836,2.08468 199.5,-0.5 Z"/></g>
<g><path style="opacity:1" fill="#24509b" d="M 163.5,73.5 C 164.239,73.369 164.906,73.5357 165.5,74C 146.868,94.7629 134.701,118.93 129,146.5C 126.605,157.389 124.938,168.389 124,179.5C 102.163,196.835 83.6628,217.169 68.5,240.5C 64.2637,163.931 95.9304,108.264 163.5,73.5 Z"/></g>
<g><path style="opacity:1" fill="#24509b" d="M 430.5,199.5 C 430.5,209.833 430.5,220.167 430.5,230.5C 421.615,311.514 381.282,371.014 309.5,409C 283.97,420.88 257.304,428.047 229.5,430.5C 219.833,430.5 210.167,430.5 200.5,430.5C 145.314,425.573 98.3143,403.406 59.5,364C 74.5775,367.68 89.9108,370.347 105.5,372C 121.883,372.675 138.217,372.342 154.5,371C 222.737,400.24 287.404,393.906 348.5,352C 408.081,303.957 432.581,241.79 422,165.5C 419.621,154.652 416.955,143.985 414,133.5C 423.005,154.71 428.505,176.71 430.5,199.5 Z"/></g>
<g><path style="opacity:1" fill="#24509b" d="M 351.5,154.5 C 353.028,154.517 353.528,155.184 353,156.5C 331.745,171.754 313.078,189.754 297,210.5C 281.169,233.491 265.836,256.824 251,280.5C 239.254,296.248 226.087,310.748 211.5,324C 185.339,344.499 155.506,354.666 122,354.5C 100.952,354.075 80.4516,350.575 60.5,344C 77.0981,341.69 92.4315,336.024 106.5,327C 120.691,317.814 134.024,307.48 146.5,296C 177.53,264.637 208.197,232.971 238.5,201C 263.409,181.381 291.409,167.881 322.5,160.5C 332.248,158.218 341.915,156.218 351.5,154.5 Z"/></g>
<g><path style="opacity:1" fill="#24509b" d="M 243.5,155.5 C 253.538,155.586 263.538,156.252 273.5,157.5C 255.808,166.005 239.474,176.505 224.5,189C 199.531,215.637 174.197,241.97 148.5,268C 139.833,275.667 131.167,283.333 122.5,291C 109.02,301.578 94.6865,310.911 79.5,319C 66.353,324.636 52.6864,326.803 38.5,325.5C 45.5796,319.921 51.4129,313.254 56,305.5C 63.5896,290.654 70.9229,275.654 78,260.5C 114.389,195.951 169.556,160.951 243.5,155.5 Z"/></g>
<g><path style="opacity:1" fill="#24509b" d="M 263.5,293.5 C 280.512,302.114 298.512,307.614 317.5,310C 326.208,310.752 334.875,310.419 343.5,309C 353.777,306.932 363.777,304.266 373.5,301C 336.495,344.126 289.495,362.793 232.5,357C 223.176,356.391 214.176,354.391 205.5,351C 228.001,334.999 247.334,315.833 263.5,293.5 Z"/></g>
</svg>
